<svg width="290" height="61" viewBox="0 0 290 61" fill="none" xmlns="http://www.w3.org/2000/svg">
<path d="M33.6961 47.3677L39 23.5H7L12.3039 47.3677C12.6376 48.8694 12.8045 49.6202 13.3529 50.0601C13.9013 50.5 14.6704 50.5 16.2087 50.5H29.7913C31.3296 50.5 32.0987 50.5 32.6471 50.0601C33.1955 49.6202 33.3624 48.8694 33.6961 47.3677Z" fill="#E5625E" stroke="black" stroke-width="4" stroke-linecap="round" stroke-linejoin="round"/>
<path d="M27 50.5L28 23.5" stroke="white" stroke-width="4" stroke-linecap="round" stroke-linejoin="round"/>
<path d="M19 50.5L18 23.5" stroke="white" stroke-width="4" stroke-linecap="round" stroke-linejoin="round"/>
<path d="M31 50.5H15" stroke="black" stroke-width="4" stroke-linecap="round" stroke-linejoin="round"/>
<path d="M31 23.5H15" stroke="black" stroke-width="4" stroke-linecap="round" stroke-linejoin="round"/>
<path d="M11.0004 23.4999C11.0004 23.4999 10.0004 20.4999 11.5004 18.9999C13.0004 17.4999 16.0004 17.9999 16.0004 17.9999C16.0004 17.9999 16.0004 14.9999 18.0004 13.9999C20.0004 12.9999 23.0004 14.4999 23.0004 14.4999C23.0004 14.4999 25.0004 11.1427 28.0004 11.9999C31.0004 12.8572 31.0004 16.5 31.0004 16.5C31.0004 16.5 33.5004 16.5 35.0004 18.4999C36.5004 20.4999 35.0004 23.4999 35.0004 23.4999" stroke="black" stroke-width="4" stroke-linecap="round" stroke-linejoin="round"/>
<path d="M53.459 43.1641C53.3496 43.0547 53.2949 42.8223 53.2949 42.4668C53.2949 41.9473 53.3359 41.6875 53.418 41.6875C53.7461 41.6875 54.2246 41.5918 54.8535 41.4004C55.5098 41.209 56.1113 40.9629 56.6582 40.6621C57.2324 40.334 57.5332 39.9785 57.5605 39.5957L57.7246 37.627C58.0254 32.7324 58.2031 28.6582 58.2578 25.4043C58.3125 22.1504 58.3809 19.9902 58.4629 18.9238C58.4629 18.623 58.4219 18.377 58.3398 18.1855C58.2852 18.0215 58.0527 17.8848 57.6426 17.7754C57.2324 17.6387 56.7949 17.5293 56.3301 17.4473C55.8926 17.3652 55.5508 17.3242 55.3047 17.3242C55.1953 17.3242 55.1406 17.0371 55.1406 16.4629C55.1406 16.1621 55.1953 15.957 55.3047 15.8477C55.5781 15.8477 55.9883 15.875 56.5352 15.9297C57.1094 15.957 57.7109 15.998 58.3398 16.0527C58.9961 16.0801 59.5566 16.0938 60.0215 16.0938C60.4043 16.0938 60.8828 16.0801 61.457 16.0527C62.0586 15.998 62.6328 15.957 63.1797 15.9297C63.7266 15.875 64.1094 15.8477 64.3281 15.8477C64.4648 16.2852 64.8066 17.1465 65.3535 18.4316C65.9277 19.7168 66.707 21.4258 67.6914 23.5586C68.6758 25.7188 69.5371 27.6328 70.2754 29.3008C71.0137 30.9414 71.6152 32.3633 72.0801 33.5664H72.1621C72.2168 33.5664 72.2441 33.5527 72.2441 33.5254C73.2832 30.9277 74.2266 28.5488 75.0742 26.3887C75.9219 24.2285 76.6465 22.3008 77.248 20.6055L78.6016 16.0117C78.8477 16.0391 79.2441 16.0664 79.791 16.0938C80.3652 16.0938 81.0762 16.0938 81.9238 16.0938L87.0918 15.8477C87.2012 15.9844 87.2559 16.2031 87.2559 16.5039C87.2559 17.0781 87.1875 17.3652 87.0508 17.3652H87.0098C86.3262 17.3652 85.752 17.5293 85.2871 17.8574C84.8496 18.1582 84.6582 18.7188 84.7129 19.5391L85.5332 36.7656C85.6152 38.4062 85.8203 39.6641 86.1484 40.5391C86.2305 40.7031 86.4219 40.8672 86.7227 41.0312C87.0508 41.1953 87.3926 41.3457 87.748 41.4824C88.1035 41.5918 88.3633 41.6465 88.5273 41.6465C88.6367 41.6465 88.6914 41.9199 88.6914 42.4668C88.6914 42.7129 88.6641 42.9453 88.6094 43.1641C88.418 43.1367 87.9941 43.0957 87.3379 43.041C86.6816 43.0137 85.9844 42.9727 85.2461 42.918C84.5078 42.8633 83.8926 42.8359 83.4004 42.8359C82.9082 42.8359 82.2383 42.8633 81.3906 42.918C80.543 42.9727 79.7363 43.0137 78.9707 43.041C78.2324 43.0957 77.7266 43.1367 77.4531 43.1641C77.3164 43.0273 77.248 42.8086 77.248 42.5078C77.248 41.9336 77.2891 41.6465 77.3711 41.6465C77.5898 41.6465 77.877 41.5918 78.2324 41.4824C78.5879 41.3457 78.9297 41.1953 79.2578 41.0312C79.6133 40.8398 79.832 40.6621 79.9141 40.498C80.1328 40.0605 80.2422 39.6777 80.2422 39.3496C80.2422 39.0488 80.2285 38.6934 80.2012 38.2832C80.2012 37.873 80.1875 37.4219 80.1602 36.9297L79.832 26.5117C79.7227 24.6797 79.6133 23.7637 79.5039 23.7637C79.4492 23.7637 79.3809 23.8594 79.2988 24.0508L72.2031 41.7285C72.0938 42.002 71.875 42.3027 71.5469 42.6309C71.2188 42.9316 70.8906 43.082 70.5625 43.082C70.5352 43.082 70.4121 43.0547 70.1934 43L61.1699 22.7383L60.4727 38.5293C60.4727 38.9121 60.4727 39.2266 60.4727 39.4727C60.4727 39.7188 60.4863 39.8965 60.5137 40.0059C60.5684 40.1699 60.7598 40.3477 61.0879 40.5391C61.4434 40.7305 61.8535 40.9082 62.3184 41.0723C62.7832 41.2363 63.2207 41.373 63.6309 41.4824C64.0684 41.5918 64.3691 41.6465 64.5332 41.6465C64.6426 41.6465 64.6973 41.9199 64.6973 42.4668C64.6973 42.7129 64.6699 42.9453 64.6152 43.1641C62.9746 43.1641 61.7305 43.1504 60.8828 43.123C60.0625 43.0957 59.4746 43.0684 59.1191 43.041C58.7637 43.0137 58.5039 43 58.3398 43C58.1758 42.9727 57.9707 42.959 57.7246 42.959C57.4785 42.959 57.041 42.9727 56.4121 43C55.7832 43.0273 54.7988 43.082 53.459 43.1641ZM100.586 43.2871C98.8086 43.2871 97.1816 42.877 95.7051 42.0566C94.2559 41.209 93.0938 40.0879 92.2188 38.6934C91.3711 37.2715 90.9473 35.6992 90.9473 33.9766C90.9473 32.2266 91.3711 30.6543 92.2188 29.2598C93.0938 27.8652 94.2559 26.7578 95.7051 25.9375C97.1816 25.0898 98.8086 24.666 100.586 24.666C102.391 24.666 104.018 25.0898 105.467 25.9375C106.916 26.7578 108.064 27.8652 108.912 29.2598C109.787 30.6543 110.225 32.2266 110.225 33.9766C110.225 35.6992 109.801 37.2715 108.953 38.6934C108.105 40.0879 106.943 41.209 105.467 42.0566C104.018 42.877 102.391 43.2871 100.586 43.2871ZM100.996 41.0312C101.762 41.0312 102.391 40.7715 102.883 40.252C103.375 39.7324 103.73 39.0488 103.949 38.2012C104.195 37.3262 104.318 36.3965 104.318 35.4121C104.318 29.752 102.883 26.9219 100.012 26.9219C99.2461 26.9219 98.6172 27.1953 98.125 27.7422C97.6602 28.2891 97.3184 29 97.0996 29.875C96.8809 30.75 96.7715 31.6934 96.7715 32.7051C96.7715 38.2559 98.1797 41.0312 100.996 41.0312ZM121.217 43.4512C120.916 43.4512 120.697 43.3418 120.561 43.123L113.752 27.7832C113.506 27.2363 113.068 26.8672 112.439 26.6758C111.811 26.457 111.291 26.3477 110.881 26.3477C110.771 26.3477 110.717 26.0742 110.717 25.5273C110.717 25.1719 110.771 24.9395 110.881 24.8301C111.045 24.8301 111.359 24.8574 111.824 24.9121C112.289 24.9395 112.822 24.9805 113.424 25.0352C114.053 25.0625 114.641 25.0898 115.188 25.1172C115.734 25.1445 116.172 25.1582 116.5 25.1582C116.855 25.1582 117.293 25.1445 117.812 25.1172C118.359 25.0898 119.016 25.0488 119.781 24.9941C120.52 24.9395 121.107 24.8984 121.545 24.8711C121.982 24.8438 122.256 24.8301 122.365 24.8301C122.475 24.9395 122.529 25.2129 122.529 25.6504C122.529 26.1152 122.475 26.3477 122.365 26.3477C122.092 26.3477 121.736 26.4023 121.299 26.5117C120.861 26.5938 120.465 26.7305 120.109 26.9219C119.754 27.0859 119.576 27.3047 119.576 27.5781C119.576 27.7695 119.617 27.9746 119.699 28.1934L122.898 35.7812L126.139 28.9727C126.521 28.1523 126.535 27.5645 126.18 27.209C125.605 26.6348 124.703 26.3477 123.473 26.3477C123.391 26.293 123.35 26.0742 123.35 25.6914C123.35 25.3359 123.377 25.0488 123.432 24.8301L125.688 24.9941C126.234 25.0488 126.713 25.0898 127.123 25.1172C127.533 25.1445 127.889 25.1582 128.189 25.1582C128.518 25.1582 128.887 25.1445 129.297 25.1172C129.734 25.0625 130.213 25.0215 130.732 24.9941L132.906 24.8301C133.016 24.9395 133.07 25.1719 133.07 25.5273C133.07 26.0742 133.016 26.3477 132.906 26.3477C132.633 26.3477 132.277 26.416 131.84 26.5527C131.402 26.6895 130.979 26.8809 130.568 27.127C130.158 27.3457 129.857 27.6328 129.666 27.9883L122.447 42.2617C122.037 43.0547 121.627 43.4512 121.217 43.4512ZM135.49 43.1641C135.381 43.0547 135.326 42.7949 135.326 42.3848C135.326 41.9746 135.381 41.7695 135.49 41.7695C135.709 41.7695 135.996 41.7148 136.352 41.6055C136.707 41.4961 137.049 41.3594 137.377 41.1953C137.705 41.0312 137.883 40.8809 137.91 40.7441C138.102 39.9785 138.197 38.9395 138.197 37.627V31.6387C138.197 30.1074 137.951 29.082 137.459 28.5625C137.24 28.2891 136.939 28.0977 136.557 27.9883C136.201 27.8789 135.887 27.8105 135.613 27.7832C135.34 27.7285 135.203 27.6738 135.203 27.6191C135.203 26.8262 135.271 26.4297 135.408 26.4297C135.654 26.4297 136.105 26.375 136.762 26.2656C137.418 26.1562 138.143 26.0195 138.936 25.8555C139.756 25.6914 140.521 25.5273 141.232 25.3633C141.971 25.1992 142.531 25.0625 142.914 24.9531L143.365 24.8301C143.502 24.8301 143.639 24.9258 143.775 25.1172C143.912 25.2812 143.98 25.418 143.98 25.5273C143.844 26.7305 143.734 27.6738 143.652 28.3574C143.57 29.041 143.529 29.4648 143.529 29.6289V37.0117C143.529 38.5703 143.639 39.8145 143.857 40.7441C143.912 40.8535 144.09 40.9902 144.391 41.1543C144.719 41.3184 145.061 41.4688 145.416 41.6055C145.771 41.7148 146.018 41.7695 146.154 41.7695C146.236 41.7695 146.277 41.9746 146.277 42.3848C146.305 42.7949 146.291 43.0547 146.236 43.1641C146.018 43.1367 145.553 43.0957 144.842 43.041C144.158 43.0137 143.434 42.9727 142.668 42.918C141.902 42.8633 141.301 42.8359 140.863 42.8359C140.426 42.8359 139.824 42.8633 139.059 42.918C138.293 42.9727 137.568 43.0137 136.885 43.041C136.201 43.0957 135.736 43.1367 135.49 43.1641ZM140.658 20.7695C139.811 20.7695 139.086 20.4824 138.484 19.9082C137.91 19.3066 137.623 18.582 137.623 17.7344C137.623 16.8867 137.91 16.1758 138.484 15.6016C139.086 15 139.811 14.6992 140.658 14.6992C141.506 14.6992 142.217 15 142.791 15.6016C143.393 16.1758 143.693 16.8867 143.693 17.7344C143.693 18.582 143.393 19.3066 142.791 19.9082C142.217 20.4824 141.506 20.7695 140.658 20.7695ZM157.434 43.2871C155.766 43.2871 154.221 42.8633 152.799 42.0156C151.404 41.168 150.283 40.0332 149.436 38.6113C148.615 37.1895 148.205 35.6309 148.205 33.9355C148.205 32.1855 148.574 30.6133 149.312 29.2188C150.078 27.8242 151.131 26.7168 152.471 25.8965C153.811 25.0762 155.355 24.666 157.105 24.666C158.828 24.666 160.291 25.0762 161.494 25.8965C162.725 26.6895 163.654 27.6875 164.283 28.8906C164.939 30.0664 165.268 31.2559 165.268 32.459C165.268 33.0879 165.131 33.498 164.857 33.6895C164.611 33.8809 164.105 33.9766 163.34 33.9766H154.07C153.906 33.9766 153.824 34.0723 153.824 34.2637C153.824 35.248 154.002 36.1777 154.357 37.0527C154.74 37.9277 155.287 38.6387 155.998 39.1855C156.736 39.7324 157.625 40.0059 158.664 40.0059C159.594 40.0059 160.455 39.8691 161.248 39.5957C161.795 39.4316 162.219 39.2812 162.52 39.1445C162.82 39.0078 163.094 38.8574 163.34 38.6934C163.613 38.502 163.928 38.2695 164.283 37.9961C164.529 38.1055 164.652 38.3652 164.652 38.7754C164.652 39.1309 164.598 39.4043 164.488 39.5957C164.324 40.0332 163.887 40.5391 163.176 41.1133C162.492 41.6875 161.645 42.1934 160.633 42.6309C159.648 43.0684 158.582 43.2871 157.434 43.2871ZM154.111 31.7207H159.32C159.703 31.7207 159.895 31.4609 159.895 30.9414C159.895 29.9023 159.607 28.9727 159.033 28.1523C158.486 27.332 157.775 26.9219 156.9 26.9219C156.107 26.9219 155.479 27.209 155.014 27.7832C154.576 28.3301 154.262 28.9453 154.07 29.6289C153.906 30.3125 153.824 30.873 153.824 31.3105C153.824 31.584 153.92 31.7207 154.111 31.7207ZM167.77 43.1641C167.66 43.0547 167.605 42.8223 167.605 42.4668C167.605 41.9199 167.66 41.6465 167.77 41.6465C167.988 41.6465 168.303 41.6055 168.713 41.5234C169.123 41.4414 169.506 41.332 169.861 41.1953C170.217 41.0312 170.422 40.8809 170.477 40.7441C170.641 40.1152 170.723 38.9121 170.723 37.1348V21.6309C170.723 20.0996 170.641 19.0332 170.477 18.4316C170.422 18.2676 170.203 18.1035 169.82 17.9395C169.465 17.748 169.082 17.5977 168.672 17.4883C168.262 17.3516 167.947 17.2832 167.729 17.2832C167.619 17.2832 167.564 17.0371 167.564 16.5449C167.564 16.1074 167.605 15.8477 167.688 15.7656C168.918 15.8203 170.039 15.875 171.051 15.9297C172.062 15.957 172.951 15.9707 173.717 15.9707C174.1 15.9707 174.51 15.9707 174.947 15.9707C175.412 15.9434 175.877 15.916 176.342 15.8887C176.807 15.8613 177.258 15.8477 177.695 15.8477C178.133 15.8477 178.557 15.8477 178.967 15.8477C180.607 15.8477 182.125 16.0664 183.52 16.5039C184.477 16.7773 185.352 17.2422 186.145 17.8984C186.965 18.5273 187.621 19.3066 188.113 20.2363C188.605 21.1387 188.852 22.1777 188.852 23.3535C188.852 24.8301 188.455 26.1836 187.662 27.4141C186.896 28.6445 185.844 29.6426 184.504 30.4082C183.191 31.1465 181.715 31.5156 180.074 31.5156C179.527 31.5156 178.98 31.4336 178.434 31.2695C177.914 31.1055 177.559 30.8867 177.367 30.6133C177.258 30.4492 177.189 30.1484 177.162 29.7109C177.135 29.2734 177.189 29.0547 177.326 29.0547C177.709 29.2734 178.324 29.3828 179.172 29.3828C181.469 29.3828 182.617 27.5234 182.617 23.8047C182.617 20.0586 181.359 18.1855 178.844 18.1855C177.887 18.1855 177.258 18.2949 176.957 18.5137C176.629 18.7598 176.465 20.0996 176.465 22.5332V37.2168C176.465 38.666 176.561 39.7871 176.752 40.5801C176.807 40.7988 177.039 40.9902 177.449 41.1543C177.859 41.3184 178.311 41.4414 178.803 41.5234C179.295 41.6055 179.678 41.6465 179.951 41.6465C180.061 41.6465 180.115 41.9062 180.115 42.4258C180.115 42.6992 180.088 42.9453 180.033 43.1641C176.752 43 174.66 42.918 173.758 42.918L167.77 43.1641ZM191.271 43.1641C191.162 43.0547 191.107 42.7949 191.107 42.3848C191.107 41.9746 191.162 41.7695 191.271 41.7695C191.49 41.7695 191.777 41.7148 192.133 41.6055C192.488 41.4961 192.83 41.3594 193.158 41.1953C193.486 41.0312 193.664 40.8809 193.691 40.7441C193.883 39.9785 193.979 38.9395 193.979 37.627V31.6387C193.979 30.1074 193.732 29.082 193.24 28.5625C193.021 28.2891 192.721 28.0977 192.338 27.9883C191.982 27.8789 191.668 27.8105 191.395 27.7832C191.121 27.7285 190.984 27.6738 190.984 27.6191C190.984 26.8262 191.053 26.4297 191.189 26.4297C191.436 26.4297 191.887 26.375 192.543 26.2656C193.199 26.1562 193.924 26.0195 194.717 25.8555C195.537 25.6914 196.303 25.5273 197.014 25.3633C197.752 25.1992 198.312 25.0625 198.695 24.9531L199.146 24.8301C199.283 24.8301 199.42 24.9258 199.557 25.1172C199.693 25.2812 199.762 25.418 199.762 25.5273C199.625 26.7305 199.516 27.6738 199.434 28.3574C199.352 29.041 199.311 29.4648 199.311 29.6289V37.0117C199.311 38.5703 199.42 39.8145 199.639 40.7441C199.693 40.8535 199.871 40.9902 200.172 41.1543C200.5 41.3184 200.842 41.4688 201.197 41.6055C201.553 41.7148 201.799 41.7695 201.936 41.7695C202.018 41.7695 202.059 41.9746 202.059 42.3848C202.086 42.7949 202.072 43.0547 202.018 43.1641C201.799 43.1367 201.334 43.0957 200.623 43.041C199.939 43.0137 199.215 42.9727 198.449 42.918C197.684 42.8633 197.082 42.8359 196.645 42.8359C196.207 42.8359 195.605 42.8633 194.84 42.918C194.074 42.9727 193.35 43.0137 192.666 43.041C191.982 43.0957 191.518 43.1367 191.271 43.1641ZM196.439 20.7695C195.592 20.7695 194.867 20.4824 194.266 19.9082C193.691 19.3066 193.404 18.582 193.404 17.7344C193.404 16.8867 193.691 16.1758 194.266 15.6016C194.867 15 195.592 14.6992 196.439 14.6992C197.287 14.6992 197.998 15 198.572 15.6016C199.174 16.1758 199.475 16.8867 199.475 17.7344C199.475 18.582 199.174 19.3066 198.572 19.9082C197.998 20.4824 197.287 20.7695 196.439 20.7695ZM213.707 43.2871C211.957 43.2871 210.385 42.8633 208.99 42.0156C207.596 41.168 206.488 40.0195 205.668 38.5703C204.848 37.1211 204.438 35.5078 204.438 33.7305C204.438 32.0352 204.875 30.5039 205.75 29.1367C206.625 27.7695 207.801 26.6895 209.277 25.8965C210.781 25.0762 212.436 24.666 214.24 24.666C215.635 24.666 216.92 24.9121 218.096 25.4043C219.271 25.8691 220.119 26.4297 220.639 27.0859C220.639 29.6016 219.9 30.8594 218.424 30.8594C217.357 30.8594 216.551 30.1758 216.004 28.8086C215.758 28.1797 215.443 27.7148 215.061 27.4141C214.705 27.0859 214.199 26.9219 213.543 26.9219C211.355 26.9219 210.262 28.9727 210.262 33.0742C210.262 37.6953 211.807 40.0059 214.896 40.0059C215.826 40.0059 216.688 39.8691 217.48 39.5957C218.027 39.4316 218.451 39.2812 218.752 39.1445C219.053 39.0078 219.326 38.8574 219.572 38.6934C219.846 38.502 220.16 38.2695 220.516 37.9961C220.762 38.1055 220.885 38.3652 220.885 38.7754C220.885 39.1309 220.83 39.4043 220.721 39.5957C220.557 40.0332 220.133 40.5527 219.449 41.1543C218.766 41.7285 217.918 42.2344 216.906 42.6719C215.922 43.082 214.855 43.2871 213.707 43.2871ZM223.141 43.1641C223.031 43.0547 222.977 42.7676 222.977 42.3027C222.977 41.8652 223.031 41.6465 223.141 41.6465C223.359 41.6465 223.674 41.5918 224.084 41.4824C224.494 41.3457 224.877 41.1953 225.232 41.0312C225.588 40.8672 225.779 40.7305 225.807 40.6211C225.998 39.8555 226.094 38.8164 226.094 37.5039V21.2207C226.094 20.5918 226.066 20.0312 226.012 19.5391C225.984 19.0469 225.943 18.623 225.889 18.2676C225.779 17.8301 225.068 17.6113 223.756 17.6113H223.387C223.223 17.6113 223.141 17.3379 223.141 16.791C223.141 16.3262 223.223 16.0938 223.387 16.0938C224.453 15.9844 225.479 15.834 226.463 15.6426C227.475 15.4512 228.363 15.2598 229.129 15.0684C229.922 14.8496 230.51 14.6992 230.893 14.6172L231.385 14.4941C231.494 14.4668 231.604 14.5488 231.713 14.7402C231.822 14.9043 231.891 15.0547 231.918 15.1914C231.59 16.4219 231.426 17.8027 231.426 19.334V32.377C232.164 32.1582 232.629 31.9805 232.82 31.8438C233.367 31.3789 233.941 30.8867 234.543 30.3672C235.172 29.8477 235.746 29.3555 236.266 28.8906C236.73 28.4805 237.072 28.1523 237.291 27.9062C237.537 27.6328 237.66 27.3594 237.66 27.0859C237.66 26.7031 237.428 26.5117 236.963 26.5117C236.498 26.4844 236.102 26.4434 235.773 26.3887C235.746 26.2793 235.719 26.1562 235.691 26.0195C235.691 25.8828 235.691 25.7188 235.691 25.5273C235.691 25.1445 235.746 24.9395 235.855 24.9121L240.531 24.9531C241.324 24.9531 242.076 24.9531 242.787 24.9531C243.525 24.9258 244.195 24.8984 244.797 24.8711C244.906 24.8984 244.961 25.0488 244.961 25.3223C244.988 25.5684 244.988 25.8145 244.961 26.0605C244.934 26.2793 244.893 26.3887 244.838 26.3887C244.018 26.3887 243.061 26.7031 241.967 27.332C240.08 28.4258 238.207 29.916 236.348 31.8027C238.48 34.127 240.203 36.082 241.516 37.668C242.855 39.2266 243.785 40.1973 244.305 40.5801C244.66 40.8809 245.125 41.1406 245.699 41.3594C246.273 41.5508 246.684 41.6465 246.93 41.6465C247.066 41.6465 247.135 41.9062 247.135 42.4258C247.135 42.7266 247.107 42.959 247.053 43.123L241.885 42.877C241.557 42.8496 241.133 42.8633 240.613 42.918C240.094 42.9453 239.479 42.9863 238.768 43.041L236.43 43.1641C236.32 43.0547 236.266 42.7676 236.266 42.3027C236.266 41.8652 236.32 41.6465 236.43 41.6465C236.703 41.6465 237.018 41.5918 237.373 41.4824C237.729 41.373 237.906 41.25 237.906 41.1133C237.906 41.0586 237.893 41.0176 237.865 40.9902L231.877 34.1406L231.426 34.2637V36.8887C231.426 38.6934 231.521 39.9375 231.713 40.6211C231.768 40.7305 231.973 40.8672 232.328 41.0312C232.684 41.1953 233.053 41.3457 233.436 41.4824C233.846 41.5918 234.133 41.6465 234.297 41.6465C234.352 41.6465 234.393 41.7559 234.42 41.9746C234.447 42.1934 234.461 42.4258 234.461 42.6719C234.461 42.918 234.434 43.082 234.379 43.1641C234.215 43.1641 233.9 43.1367 233.436 43.082C232.971 43.0547 232.424 43.0273 231.795 43C231.193 42.9453 230.619 42.9043 230.072 42.877C229.525 42.8496 229.088 42.8359 228.76 42.8359C228.432 42.8359 227.98 42.8496 227.406 42.877C226.859 42.9043 226.285 42.9453 225.684 43C225.082 43.0273 224.549 43.0547 224.084 43.082C223.619 43.1367 223.305 43.1641 223.141 43.1641ZM257.184 43.2871C255.516 43.2871 253.971 42.8633 252.549 42.0156C251.154 41.168 250.033 40.0332 249.186 38.6113C248.365 37.1895 247.955 35.6309 247.955 33.9355C247.955 32.1855 248.324 30.6133 249.062 29.2188C249.828 27.8242 250.881 26.7168 252.221 25.8965C253.561 25.0762 255.105 24.666 256.855 24.666C258.578 24.666 260.041 25.0762 261.244 25.8965C262.475 26.6895 263.404 27.6875 264.033 28.8906C264.689 30.0664 265.018 31.2559 265.018 32.459C265.018 33.0879 264.881 33.498 264.607 33.6895C264.361 33.8809 263.855 33.9766 263.09 33.9766H253.82C253.656 33.9766 253.574 34.0723 253.574 34.2637C253.574 35.248 253.752 36.1777 254.107 37.0527C254.49 37.9277 255.037 38.6387 255.748 39.1855C256.486 39.7324 257.375 40.0059 258.414 40.0059C259.344 40.0059 260.205 39.8691 260.998 39.5957C261.545 39.4316 261.969 39.2812 262.27 39.1445C262.57 39.0078 262.844 38.8574 263.09 38.6934C263.363 38.502 263.678 38.2695 264.033 37.9961C264.279 38.1055 264.402 38.3652 264.402 38.7754C264.402 39.1309 264.348 39.4043 264.238 39.5957C264.074 40.0332 263.637 40.5391 262.926 41.1133C262.242 41.6875 261.395 42.1934 260.383 42.6309C259.398 43.0684 258.332 43.2871 257.184 43.2871ZM253.861 31.7207H259.07C259.453 31.7207 259.645 31.4609 259.645 30.9414C259.645 29.9023 259.357 28.9727 258.783 28.1523C258.236 27.332 257.525 26.9219 256.65 26.9219C255.857 26.9219 255.229 27.209 254.764 27.7832C254.326 28.3301 254.012 28.9453 253.82 29.6289C253.656 30.3125 253.574 30.873 253.574 31.3105C253.574 31.584 253.67 31.7207 253.861 31.7207ZM267.52 43.1641C267.41 43.0547 267.355 42.7676 267.355 42.3027C267.355 41.8652 267.41 41.6465 267.52 41.6465C267.738 41.6465 268.053 41.5918 268.463 41.4824C268.873 41.3457 269.256 41.1953 269.611 41.0312C269.967 40.8672 270.158 40.7305 270.186 40.6211C270.377 39.8555 270.473 38.8164 270.473 37.5039V31.8848C270.473 30.3535 270.227 29.3281 269.734 28.8086C269.516 28.5352 269.215 28.3438 268.832 28.2344C268.477 28.125 268.162 28.0566 267.889 28.0293C267.615 27.9746 267.479 27.9199 267.479 27.8652C267.479 26.9082 267.547 26.4297 267.684 26.4297C268.395 26.4297 269.379 26.2793 270.637 25.9785C271.922 25.6504 273.275 25.3359 274.697 25.0352L275.641 24.8301C275.777 24.8301 275.914 24.9258 276.051 25.1172C276.188 25.2812 276.256 25.418 276.256 25.5273C276.229 25.6914 276.188 26.0195 276.133 26.5117C276.105 27.0039 276.078 27.2773 276.051 27.332C277.418 25.5547 278.963 24.666 280.686 24.666C281.916 24.666 283.092 25.1719 284.213 26.1836C284.213 27.6055 284.035 28.6582 283.68 29.3418C283.352 30.0254 282.736 30.3672 281.834 30.3672C281.287 30.3672 280.658 30.0527 279.947 29.4238C279.236 28.7949 278.607 28.4805 278.061 28.4805C277.514 28.4805 277.076 28.6992 276.748 29.1367C276.42 29.5469 276.174 30.0801 276.01 30.7363C275.873 31.3926 275.805 32.0762 275.805 32.7871V36.9297C275.805 38.707 275.9 39.9375 276.092 40.6211C276.146 40.7305 276.338 40.8672 276.666 41.0312C276.994 41.1953 277.35 41.3457 277.732 41.4824C278.115 41.5918 278.375 41.6465 278.512 41.6465C278.566 41.6465 278.607 41.7559 278.635 41.9746C278.662 42.1934 278.676 42.4258 278.676 42.6719C278.676 42.918 278.648 43.082 278.594 43.1641C278.375 43.1367 277.91 43.0957 277.199 43.041C276.488 43.0137 275.736 42.9727 274.943 42.918C274.178 42.8633 273.576 42.8359 273.139 42.8359C272.811 42.8359 272.359 42.8496 271.785 42.877C271.238 42.9043 270.664 42.9453 270.062 43C269.461 43.0273 268.928 43.0547 268.463 43.082C267.998 43.1367 267.684 43.1641 267.52 43.1641Z" fill="#0F0A0A"/>
</svg>
